<mxfile modified="2024-07-16T13:33:05.958Z" host="app.diagrams.net" agent="Mozilla/5.0 (Windows NT 10.0; Win64; x64) AppleWebKit/537.36 (KHTML, like Gecko) Chrome/126.0.0.0 Safari/537.36" etag="x003ALICW9ZQ14CBquSi" version="24.6.5" type="github">
  <diagram id="Ht1M8jgEwFfnCIfOTk4-" name="Page-1">
    <mxGraphModel dx="1034" dy="724" grid="1" gridSize="10" guides="1" tooltips="1" connect="1" arrows="1" fold="1" page="1" pageScale="1" pageWidth="1169" pageHeight="827" math="0" shadow="0">
      <root>
        <mxCell id="0" />
        <mxCell id="1" parent="0" />
        <mxCell id="VYMYHPz4Sc5OkGbCSFCF-17" style="edgeStyle=orthogonalEdgeStyle;rounded=0;orthogonalLoop=1;jettySize=auto;html=1;" edge="1" parent="1" source="UEzPUAAOIrF-is8g5C7q-115">
          <mxGeometry relative="1" as="geometry">
            <mxPoint x="439" y="630" as="targetPoint" />
          </mxGeometry>
        </mxCell>
        <mxCell id="VYMYHPz4Sc5OkGbCSFCF-22" style="edgeStyle=orthogonalEdgeStyle;rounded=0;orthogonalLoop=1;jettySize=auto;html=1;entryX=0.5;entryY=1;entryDx=0;entryDy=0;" edge="1" parent="1" source="UEzPUAAOIrF-is8g5C7q-115" target="VYMYHPz4Sc5OkGbCSFCF-19">
          <mxGeometry relative="1" as="geometry" />
        </mxCell>
        <mxCell id="UEzPUAAOIrF-is8g5C7q-115" value="Lambda&lt;br&gt;function" style="outlineConnect=0;fontColor=#232F3E;gradientColor=none;fillColor=#D05C17;strokeColor=none;dashed=0;verticalLabelPosition=bottom;verticalAlign=top;align=center;html=1;fontSize=12;fontStyle=0;aspect=fixed;pointerEvents=1;shape=mxgraph.aws4.lambda_function;labelBackgroundColor=#ffffff;" parent="1" vertex="1">
          <mxGeometry x="400" y="460" width="78" height="78" as="geometry" />
        </mxCell>
        <mxCell id="VYMYHPz4Sc5OkGbCSFCF-1" value="" style="outlineConnect=0;dashed=0;verticalLabelPosition=bottom;verticalAlign=top;align=center;html=1;shape=mxgraph.aws3.parameter_store;fillColor=#759C3E;gradientColor=none;" vertex="1" parent="1">
          <mxGeometry x="147.5" y="298" width="75" height="102" as="geometry" />
        </mxCell>
        <mxCell id="VYMYHPz4Sc5OkGbCSFCF-5" value="AWS Parameter Store Origen" style="ellipse;whiteSpace=wrap;html=1;strokeColor=none;" vertex="1" parent="1">
          <mxGeometry x="130" y="400" width="110" height="50" as="geometry" />
        </mxCell>
        <mxCell id="VYMYHPz4Sc5OkGbCSFCF-6" value="Cambio de Parameter Storage" style="ellipse;whiteSpace=wrap;html=1;strokeColor=none;" vertex="1" parent="1">
          <mxGeometry x="200" y="220" width="110" height="50" as="geometry" />
        </mxCell>
        <mxCell id="VYMYHPz4Sc5OkGbCSFCF-23" style="edgeStyle=orthogonalEdgeStyle;rounded=0;orthogonalLoop=1;jettySize=auto;html=1;" edge="1" parent="1" source="VYMYHPz4Sc5OkGbCSFCF-7">
          <mxGeometry relative="1" as="geometry">
            <mxPoint x="620" y="270" as="targetPoint" />
          </mxGeometry>
        </mxCell>
        <mxCell id="VYMYHPz4Sc5OkGbCSFCF-7" value="" style="sketch=0;points=[[0,0,0],[0.25,0,0],[0.5,0,0],[0.75,0,0],[1,0,0],[0,1,0],[0.25,1,0],[0.5,1,0],[0.75,1,0],[1,1,0],[0,0.25,0],[0,0.5,0],[0,0.75,0],[1,0.25,0],[1,0.5,0],[1,0.75,0]];outlineConnect=0;fontColor=#232F3E;fillColor=#E7157B;strokeColor=#ffffff;dashed=0;verticalLabelPosition=bottom;verticalAlign=top;align=center;html=1;fontSize=12;fontStyle=0;aspect=fixed;shape=mxgraph.aws4.resourceIcon;resIcon=mxgraph.aws4.eventbridge;" vertex="1" parent="1">
          <mxGeometry x="400" y="120" width="78" height="78" as="geometry" />
        </mxCell>
        <mxCell id="VYMYHPz4Sc5OkGbCSFCF-8" value="AWS EventBridge" style="ellipse;whiteSpace=wrap;html=1;strokeColor=none;" vertex="1" parent="1">
          <mxGeometry x="384" y="198" width="110" height="50" as="geometry" />
        </mxCell>
        <mxCell id="VYMYHPz4Sc5OkGbCSFCF-9" style="edgeStyle=orthogonalEdgeStyle;rounded=0;orthogonalLoop=1;jettySize=auto;html=1;entryX=0;entryY=0.5;entryDx=0;entryDy=0;entryPerimeter=0;" edge="1" parent="1" source="VYMYHPz4Sc5OkGbCSFCF-1" target="VYMYHPz4Sc5OkGbCSFCF-7">
          <mxGeometry relative="1" as="geometry" />
        </mxCell>
        <mxCell id="VYMYHPz4Sc5OkGbCSFCF-15" value="" style="edgeStyle=elbowEdgeStyle;elbow=horizontal;endArrow=classic;html=1;curved=0;rounded=0;endSize=8;startSize=8;" edge="1" parent="1">
          <mxGeometry width="50" height="50" relative="1" as="geometry">
            <mxPoint x="222.5" y="414" as="sourcePoint" />
            <mxPoint x="390" y="520" as="targetPoint" />
          </mxGeometry>
        </mxCell>
        <mxCell id="VYMYHPz4Sc5OkGbCSFCF-16" value="" style="sketch=0;outlineConnect=0;fontColor=#232F3E;gradientColor=none;fillColor=#DD344C;strokeColor=none;dashed=0;verticalLabelPosition=bottom;verticalAlign=top;align=center;html=1;fontSize=12;fontStyle=0;aspect=fixed;pointerEvents=1;shape=mxgraph.aws4.identity_access_management_iam_roles_anywhere;" vertex="1" parent="1">
          <mxGeometry x="400" y="640" width="78" height="78" as="geometry" />
        </mxCell>
        <mxCell id="VYMYHPz4Sc5OkGbCSFCF-18" value="AWS IAM Role" style="ellipse;whiteSpace=wrap;html=1;strokeColor=none;" vertex="1" parent="1">
          <mxGeometry x="384" y="730" width="110" height="50" as="geometry" />
        </mxCell>
        <mxCell id="VYMYHPz4Sc5OkGbCSFCF-19" value="AWS Parameter Store Destino" style="text;whiteSpace=wrap;" vertex="1" parent="1">
          <mxGeometry x="582.5" y="400" width="90" height="40" as="geometry" />
        </mxCell>
        <mxCell id="VYMYHPz4Sc5OkGbCSFCF-20" value="" style="outlineConnect=0;dashed=0;verticalLabelPosition=bottom;verticalAlign=top;align=center;html=1;shape=mxgraph.aws3.parameter_store;fillColor=#759C3E;gradientColor=none;" vertex="1" parent="1">
          <mxGeometry x="590" y="298" width="75" height="102" as="geometry" />
        </mxCell>
      </root>
    </mxGraphModel>
  </diagram>
</mxfile>
